<?xml version="1.0" encoding="utf-8"?>
<!-- Generator: Adobe Illustrator 21.0.0, SVG Export Plug-In . SVG Version: 6.00 Build 0)  -->
<svg version="1.1" id="Layer_1" xmlns="http://www.w3.org/2000/svg" xmlns:xlink="http://www.w3.org/1999/xlink" x="0px" y="0px"
	 viewBox="0 0 358.5 91.7" style="enable-background:new 0 0 358.5 91.7;" xml:space="preserve">
<style type="text/css">
	.st0{fill:#271D20;}
	.st1{fill:none;stroke:#271D20;stroke-width:0.25;stroke-miterlimit:10;}
</style>
<g>
	<path class="st0" d="M6.1,53.2c0.5,4.7,1.7,6.4,2.9,7.3c1.5,1.4,4.4,2.2,8.2,2.2c6.2,0,9.5-2.7,9.5-6c0-2.9-1.6-5-6.3-6.8l-8.2-3.1
		c-6.9-2.6-9.1-6.5-9.1-11.1c0-6.8,4.8-12.1,16.6-12.1c3,0,6.7,0.5,9.1,1.5c1.8,0.7,2.6,2.1,2.6,4.3c0,1.5-0.4,4.9-0.6,7h-3.7
		c-0.4-4.3-1.4-5.4-2.5-6.1c-1.3-1-4-1.5-6.6-1.5c-6.8,0-8.9,2.8-8.9,6.4c0,2.6,1.5,4.3,6.8,6.3l8.1,3.1c7.3,2.7,8.8,6.7,8.8,11
		c0,7.7-6.6,12.4-16.4,12.4c-3.8,0-7.8-0.7-10.4-1.7c-3.4-1.4-4-3.7-4-6.4C2,57,2.1,55,2.2,53.3L6.1,53.2L6.1,53.2z"/>
	<path class="st0" d="M73.6,67.3c-2.8,0-5.5-1.2-6.4-5.3c-3.4,3.7-7.8,5.6-12.8,5.6c-7,0-14-3.8-14-12.4c0-6.7,4-11.9,20.3-11.9
		c1.4,0,4.4,0,5.8,0.2v-4.3c0-4.9-0.5-6.4-1.3-7.5c-1.4-2.2-4.9-2.9-8.2-2.9c-3.1,0-5.6,0.6-7,1.9c-1.1,0.9-1.6,2.8-1.8,6.5h-3.9
		c-0.4-1.9-0.8-4.6-0.8-6.7c0-2.7,1.6-4.3,4.6-5.3c2.8-1,6.7-1.6,10.3-1.6c6.1,0,9.8,1.4,11.8,3.6c1.9,2.2,2.5,4.9,2.5,9.8
		c0,1.7-0.1,17.9-0.1,19c0,5,1.2,6.2,4.1,6.2c1.1,0,2.4-0.2,3.6-0.5v4.2C78.4,66.8,75.8,67.3,73.6,67.3z M66.6,48.1
		C65,48,62,47.9,60.4,47.9c-10.9,0-13.6,3-13.6,6.7c0,5.7,4.6,7.7,8.8,7.7c4.5,0,8.5-1.9,10.9-3.9V48.1H66.6z"/>
	<path class="st0" d="M95.4,66.5c-2.1,0-5.4,0-9.4,0.2v-4.2c4.4-0.4,5.9-0.6,6.6-1.5c0.5-0.5,0.7-1.7,0.7-4.8V18.8
		c0-6.5-0.3-10.6-1.5-11.9C91,6.1,89.6,6,88.2,6c-0.6,0-1.7,0.1-2.5,0.3V2.6C89.4,0.5,92.9,0,94.9,0c2.6,0,4.5,0.5,4.5,5.7
		c0,3-0.1,14.6-0.1,21.3v29.1c0,3,0.2,4.2,0.7,4.9s1.8,1.1,6.3,1.5v4.2C102.5,66.6,97.5,66.5,95.4,66.5z"/>
	<path class="st0" d="M122.3,66.5c-2.1,0-5.4,0-9.4,0.2v-4.2c4.4-0.4,5.9-0.6,6.6-1.4c0.5-0.5,0.7-1.7,0.7-4.9V37.6
		c0-3.5-0.4-5.5-1.3-6.4c-0.7-0.6-2-0.9-3.5-0.9c-0.6,0-1.9,0.1-2.6,0.2v-3.8c3.7-2.2,7.3-2.7,9.2-2.7c2.6,0,4.5,0.8,4.5,6.1
		c0,8-0.4,17.8-0.4,26.1c0,3.1,0.3,4.2,0.8,4.9c0.6,0.8,1.7,1.1,6.3,1.5v4.2C129.4,66.6,124.3,66.5,122.3,66.5z M121.5,12.1
		c-2.8,0-4.6-2.2-4.6-4.8c0-3,2-5.1,4.9-5.1c3.4,0,4.8,2.1,4.8,4.9C126.6,9.9,124.7,12.1,121.5,12.1z"/>
	<path class="st0" d="M161.4,67.9c-13.8,0-20.2-9.7-20.2-21.5c0-15.2,9.1-22.9,20.7-22.9c12.4,0,16.2,8.2,16.2,16.1
		c0,1.8-0.1,4-1.1,4.9c-0.8,0.7-2.1,0.7-3.7,0.7h-25.7v1.5c0,8.7,4.6,15.4,14.9,15.4c5.7,0,9.9-2.2,14-5.2l2.6,4
		C174.2,65.3,168,67.9,161.4,67.9z M171.9,40.4v-1c0-6.1-2.5-10.8-10.9-10.8c-6.4,0-12.1,3.9-13,11.9L171.9,40.4z"/>
	<path class="st0" d="M190.1,80.8c1.3-2.6,1.6-7.8,1.6-13.1V37.4c0-3.4-0.3-5.5-1.3-6.3c-0.8-0.7-2.1-1-3.6-1
		c-0.9,0-2.1,0.2-2.6,0.3v-3.7c3.7-2.2,7.3-2.7,9.1-2.7c2.6,0,4.4,0.8,4.4,6.1c0,8,0.3,28.3,0.3,36c0,8-0.2,12.8-2.6,16.8
		c-2.5,4.2-8,7.5-12.8,8.8l-1.4-3.8C185.5,85.9,188.4,84.1,190.1,80.8z M192.9,12.1c-2.9,0-4.7-2.2-4.7-4.8c0-3,1.9-5.1,4.8-5.1
		c3.5,0,4.9,2.1,4.9,4.9C198,9.9,196.1,12.1,192.9,12.1z"/>
	<path class="st0" d="M228.4,67.8c-3.8,0-7.7-1.4-9.7-3.7s-2.8-5.4-2.8-11.4v-15c0-3.5-0.3-5.6-1.2-6.4c-0.8-0.7-2-0.9-3.5-0.9
		c-0.7,0-2,0.2-2.6,0.2v-3.8c3.7-2.2,7.2-2.7,9-2.7c2.8,0,4.5,1.1,4.5,6.2c0,2.4-0.2,15.5-0.2,21.9c0,6.7,2,9.8,8.9,9.8
		c4.5,0,9.4-1.8,12.7-4.3v-20c0-3.5-0.3-5.6-1.2-6.4c-0.7-0.7-2.3-0.9-3.7-0.9c-0.6,0-2.2,0.1-2.8,0.2v-3.8c3.6-2.2,7.7-2.7,9.7-2.7
		c2.6,0,4.3,1.2,4.3,6.6c0,1.8-0.2,16.9-0.2,25.8c0,4.6,1.1,5.8,4,5.8c1,0,2.5-0.2,3.5-0.5V66c-2.1,1-4.6,1.5-7.1,1.5
		c-2.9,0-5.6-1.5-6.2-5.8C239.9,65.3,234.7,67.8,228.4,67.8z"/>
	<path class="st0" d="M272.1,66.5c-2.1,0-5.4,0-9.4,0.2v-4.2c4.4-0.4,5.9-0.6,6.6-1.5c0.5-0.5,0.7-1.6,0.7-4.8V37.6
		c0-3.5-0.4-5.5-1.3-6.4c-0.7-0.6-2-0.9-3.5-0.9c-0.6,0-1.9,0.1-2.6,0.2v-3.8c3.7-2.2,6.9-2.7,8.8-2.7c2.3,0,4.3,0.8,4.5,6.2
		c4.2-4,10.4-6.6,16.5-6.6c3.6,0,6.8,1.1,8.4,3c2.1,2.2,2.8,5.7,2.8,12v17.6c0,2.6,0.2,3.8,0.6,4.5c0.5,1,1.6,1.4,6.9,1.8v4.2
		c-3.8-0.1-8.4-0.2-10.4-0.2c-2.1,0-6.2,0.1-10,0.2v-4.2c3.9-0.4,5.4-0.6,5.9-1.5c0.6-0.5,0.8-1.7,0.8-5V39.8c0-3.2-0.2-5.8-1.4-7.5
		c-1.2-1.6-3.6-2.6-7-2.6c-4.1,0-9.7,1.5-13.1,3.9v22.5c0,3.1,0.2,4.2,0.8,5c0.5,0.7,1.6,1,6.1,1.4v4.2
		C279,66.6,274.2,66.5,272.1,66.5z"/>
	<path class="st0" d="M327.4,59.2c0,0.9,1.1,1.9,3.4,2.6c4,1.1,10.9,2,16.6,3.1c7.8,1.5,10.8,5.3,10.8,11.4c0,9.3-9,15.5-22.1,15.5
		c-13.5,0-20.8-5.7-20.8-12.9c0-3.7,1.7-6.3,4-8.2c1.7-1.5,3.9-3.1,6.6-4.3c-3.2-1.4-4.3-3.4-4.3-5.6c0-2.5,1.5-4.7,5.3-7.3
		c-6-2.9-8.7-7.4-8.7-13.8c0-9.7,7-16.3,17.4-16.3c4,0,7.2,0.5,10.1,2.1c6.1,0,10.7,0.1,12.8,0.3v4.6c-3.5,0.2-6.1,0.3-8.2,0.3
		c1.8,1.7,2.6,5.8,2.6,8.4c0,10.7-7.7,16.2-17.6,16.2c-1.6,0-3.8-0.1-4.7-0.3C328.3,56.7,327.4,57.7,327.4,59.2z M321.6,78
		c0,4,4.4,8.4,15.1,8.4c11.8,0,14.9-5.3,14.9-9.3c0-2.8-1.4-5.5-10.8-7c-7.6-1.2-9.8-1.7-11-2.1C323.6,71.5,321.6,74.5,321.6,78z
		 M335.6,28.7c-7.4,0-11.1,4.6-11.1,10.3c0,8.3,5,11.1,11.3,11.1c6.2,0,11.1-3.3,11.1-10.2C346.9,31.7,342.3,28.7,335.6,28.7z"/>
	<line class="st1" x1="0" y1="80.4" x2="173" y2="80.4"/>
	<line class="st1" x1="211.4" y1="80.4" x2="299.4" y2="80.4"/>
</g>
</svg>
